<svg width="368" height="298" viewBox="0 0 368 298" fill="none" xmlns="http://www.w3.org/2000/svg">
<path d="M186.112 2.58365C109.375 1.39786 45.3421 63.2961 44.0208 140C43.2077 187.77 66.3136 230.154 102.192 256.004C110.459 261.967 115.405 271.453 115.405 281.617V292.018C115.405 293.949 116.964 295.474 118.861 295.474H248.959C250.89 295.474 252.415 293.915 252.415 292.018V281.617C252.415 271.385 257.463 261.899 265.729 255.902C300.897 230.492 323.799 189.159 323.799 142.439C323.867 65.9387 262.375 3.73556 186.112 2.58365Z" fill="#FFE84D" stroke="white" stroke-width="2" stroke-linecap="round" stroke-linejoin="round"/>
<path d="M280.987 245.799L281.661 246.883C282.861 247 297.621 249.46 296.508 255.083C294.751 263.868 253.226 269.197 244.851 269.285C256.886 261.437 268.951 253.618 280.987 245.799Z" fill="black"/>
<path d="M87.5359 246.824C70.9903 250.485 69.204 253.618 69.204 255.141C69.1454 260.002 87.243 264.102 93.5977 265.508C103.642 267.763 112.135 268.407 117.904 268.583C107.771 261.32 97.6682 254.087 87.5359 246.824Z" fill="black"/>
<path d="M291.998 223.865L287.986 249.401C287.986 262.989 241.131 274 183.324 274C125.517 274 78.6628 262.989 78.6628 249.401L74.6509 223.865" fill="#FFE84D"/>
<path d="M291.998 223.865L287.986 249.401C287.986 262.989 241.131 274 183.324 274C125.517 274 78.6628 262.989 78.6628 249.401L74.6509 223.865" stroke="black" stroke-width="1.2" stroke-miterlimit="10" stroke-linecap="round" stroke-linejoin="round"/>
<path d="M183.383 198.388C182.094 198.388 180.806 198.388 179.517 198.417C237.764 198.915 284.384 210.541 284.384 224.803C284.384 232.504 270.796 239.445 249.097 244.276C275.189 239.62 292.056 232.241 292.056 223.953C292.056 209.838 243.386 198.388 183.383 198.388Z" fill="white"/>
<path d="M76.8472 224.364C77.0229 212.357 128.212 198.857 186.751 198.418C185.638 198.418 184.496 198.418 183.383 198.418C123.38 198.418 74.7095 209.839 74.7095 223.954C74.7095 228.317 79.3949 232.446 87.6531 236.048C82.3234 233.324 76.8179 227.702 76.8472 224.364Z" fill="white"/>
<path d="M202.74 229.781C192.637 232.914 130.144 231.919 127.011 214.641C126.982 214.465 126.806 214.377 126.659 214.465C111.227 223.69 144.318 234.642 169.561 234.174C174.51 234.174 199.079 235.872 203.062 230.249C203.238 230.015 203.003 229.693 202.74 229.781Z" fill="black"/>
<path d="M183.383 249.46C243.402 249.46 292.057 238.027 292.057 223.924C292.057 209.821 243.402 198.388 183.383 198.388C123.364 198.388 74.7095 209.821 74.7095 223.924C74.7095 238.027 123.364 249.46 183.383 249.46Z" stroke="black" stroke-width="1.2" stroke-miterlimit="10" stroke-linecap="round" stroke-linejoin="round"/>
<path d="M182.094 238.566C142.707 239.181 116.088 231.333 116.088 221.259C116.088 219.502 116.966 217.833 118.606 216.222C118.811 216.017 118.577 215.695 118.313 215.812C112.574 218.214 109.06 220.996 109.382 223.924C111.022 238.83 162.65 240.558 174.744 240.294C177.79 240.235 181.479 239.825 182.094 238.566Z" fill="black"/>
<path d="M183.266 32.3471C145.196 32.4056 114.36 63.2712 114.36 101.341C114.36 118.677 120.773 134.549 131.345 146.672C134.01 149.747 136.382 153.056 138.461 156.541C141.624 161.871 144.786 168.343 147.305 175.927C151.375 188.315 152.225 199.267 152.166 206.91C151.844 207.466 151.668 208.052 151.668 208.638C151.668 214.026 165.871 218.419 183.383 218.419C200.895 218.419 215.098 214.026 215.098 208.638C215.098 208.052 214.922 207.466 214.6 206.91C214.541 199.267 215.39 188.315 219.461 175.927C222.097 167.904 225.494 161.139 228.832 155.663C230.823 152.383 233.166 149.279 235.684 146.38C246.256 134.11 252.581 118.062 252.406 100.55C251.966 62.8319 221.013 32.2885 183.266 32.3471Z" fill="white"/>
<path d="M196.004 194.406C193.867 139.205 199.577 120.141 202.915 113.493C204.76 109.833 207.396 104.855 210.5 105.147C213.516 105.411 214.922 111.209 212.316 116.685C209.387 122.806 202.857 126.583 196.912 127.111C189.62 127.726 180.103 123.362 178.375 116.715C177.058 111.707 179.137 106.436 182.709 106.319C185.579 106.231 187.688 109.921 186.692 115.543C185.462 122.542 178.99 126.261 170.644 127.228C148.886 129.805 146.221 109.277 150.702 107.432C153.367 106.348 156.442 109.277 158.843 116.949C161.947 126.876 167.189 144.535 164.729 169.016" stroke="#FFE84D" stroke-width="1.2" stroke-miterlimit="10" stroke-linecap="round" stroke-linejoin="round"/>
<path d="M116.937 52.9338C116.937 52.9338 94.0367 38.9067 101.504 32.3763C107.478 27.1344 116.937 52.9338 116.937 52.9338Z" fill="white"/>
<path d="M110.231 70.8557C110.231 70.8557 96.5846 68.6008 99.513 63.6518C101.856 59.6984 110.231 70.8557 110.231 70.8557Z" fill="white"/>
<path d="M215.098 208.667C215.098 208.081 214.922 207.496 214.6 206.939C214.571 202.635 214.834 197.305 215.771 191.243C214.073 196.163 200.28 199.999 183.5 199.999C165.578 199.999 151.053 195.606 151.053 190.218L150.819 190.277C151.903 196.719 152.166 202.43 152.166 206.939C151.844 207.496 151.668 208.081 151.668 208.667C151.668 214.055 165.871 218.448 183.383 218.448C200.895 218.448 215.098 214.085 215.098 208.667Z" fill="#FFE84D"/>
<path d="M184.408 210.161C201.92 210.161 215.098 205.417 215.098 200.38C215.098 199.472 214.688 198.593 213.956 197.773C213.839 203.601 194.657 207.408 183.295 209.136C180.835 209.516 182.329 210.161 184.408 210.161Z" fill="white"/>
<path d="M177.262 218.36C179.254 218.477 181.274 218.536 183.383 218.536C200.895 218.536 215.098 214.143 215.098 208.755C215.098 207.847 214.688 206.969 213.956 206.149C213.809 213.235 185.403 217.364 177.262 218.36Z" fill="white"/>
<path d="M171.845 175.752C181.421 178.651 185.931 182.282 185.931 185.415C185.902 193.556 159.429 191.36 119.485 184.244L118.958 160.495" fill="#FFE84D"/>
<path d="M179.459 190.013C184.262 191.829 185.638 196.045 185.052 197.949C183.383 203.337 161.332 205.885 118.958 196.573L126.25 170.685" fill="#FFE84D"/>
<path d="M165.754 202.782C172.255 204.129 173.748 208.433 173.075 210.454C171.581 214.847 151.756 214.583 125.371 208.111C108.152 203.865 91.8699 196.573 77.4328 186.324C77.0521 186.06 76.6714 185.768 76.2614 185.504C65.397 177.656 56.9338 169.603 50.5499 162.692C48.2364 160.407 45.7473 157.596 43.3167 154.228C39.3048 148.664 36.6985 143.276 35 138.942C37.2549 130.303 41.6475 117.828 50.6085 104.826C56.9338 95.6601 63.7278 88.8662 69.2918 84.0636C73.8894 91.2968 78.487 98.53 83.0846 105.763C85.2809 109.189 88.9414 111.415 92.9827 111.766C119.28 113.992 135.65 89.6862 141.331 96.0701C150.526 106.378 118.636 130.86 116.791 141.578C116.498 143.188 117.523 144.77 119.075 145.326C162.943 160.525 179.488 163.629 179.43 173.673C179.43 174.317 179.43 180.379 121.945 169.983" fill="#FFE84D"/>
<path d="M72.7769 183.746C72.7769 182.282 76.1152 183.951 79.8636 185.298C86.4526 187.641 91.138 185.064 93.4222 185.796C94.6228 186.177 97.317 193.556 105.517 198.974C106.776 199.794 107.625 201.785 107.244 202.342C104.638 206.295 99.5133 200.76 98.6933 201.434C95.2378 204.216 94.6814 208.345 92.3094 208.257C89.4688 208.14 87.1554 200.38 84.7834 194.698C81.9721 187.992 72.7769 188.256 72.7769 183.746Z" fill="black"/>
<path d="M88.151 120.346C109.646 124.709 134.83 96.2451 142.327 97.475C142.063 96.9772 141.741 96.4793 141.36 96.0401C135.679 89.6561 119.28 113.962 93.0122 111.736C88.9417 111.385 85.2812 109.189 83.1141 105.733C78.5165 98.4999 73.9189 91.2668 69.3213 84.0336C65.7193 87.1084 61.6195 91.0325 57.4905 95.8937C60.5067 101.136 70.7562 116.832 88.151 120.346Z" fill="white"/>
<path d="M122.091 146.321C118.958 150.304 170.82 164.536 178.844 174.61C179.459 174.17 179.459 173.76 179.459 173.614C179.488 163.804 163.704 160.641 122.091 146.321Z" fill="white"/>
<path d="M185.931 185.386C185.931 182.253 181.421 178.621 171.845 175.722L165.49 176.747C171.259 178.973 181.831 182.751 183.383 188.812C185.052 187.992 185.931 186.88 185.931 185.386Z" fill="white"/>
<path d="M179.459 190.013L172.987 190.569C179.137 192.297 182.036 197.393 179.459 201.434C182.739 200.585 184.613 199.355 185.052 197.92C185.638 196.075 184.261 191.829 179.459 190.013Z" fill="white"/>
<path d="M119.456 184.215C159.399 191.331 185.902 193.527 185.902 185.386C185.902 182.253 181.978 178.797 172.402 175.898" stroke="black" stroke-width="1.2" stroke-miterlimit="10" stroke-linecap="round" stroke-linejoin="round"/>
<path d="M118.958 196.573C161.332 205.885 183.354 203.337 185.052 197.949C185.638 196.075 184.262 191.858 179.459 190.013" stroke="black" stroke-width="1.2" stroke-miterlimit="10" stroke-linecap="round" stroke-linejoin="round"/>
<path d="M122.062 132.206C119.426 135.691 117.23 139.146 116.791 141.548C116.498 143.158 117.523 144.74 119.075 145.296C124.492 147.17 129.471 148.869 134.068 150.391C166.779 161.344 179.488 164.829 179.43 173.643C179.43 173.965 179.43 175.634 172.372 175.927C165.227 176.249 150.848 175.166 121.915 169.953" stroke="black" stroke-width="1.2" stroke-miterlimit="10" stroke-linecap="round" stroke-linejoin="round"/>
<path d="M165.754 202.782C172.255 204.129 173.748 208.433 173.075 210.454C171.581 214.847 151.756 214.583 125.371 208.111C108.152 203.865 91.8699 196.573 77.4328 186.324C77.0521 186.06 76.6714 185.768 76.2614 185.504C65.397 177.656 56.9338 169.603 50.5499 162.692C48.2364 160.407 45.7473 157.596 43.3167 154.228C39.3048 148.664 36.6985 143.276 35 138.942C37.2549 130.303 41.6475 117.828 50.6085 104.826C56.9338 95.6601 63.7278 88.8662 69.2918 84.0636C73.8894 91.2968 78.487 98.53 83.0846 105.763C85.2809 109.189 88.9414 111.415 92.9827 111.766C101.182 112.469 108.825 110.39 115.063 107.667" stroke="black" stroke-width="1.2" stroke-miterlimit="10" stroke-linecap="round" stroke-linejoin="round"/>
<path d="M85.1938 108.252C84.4031 107.519 83.7003 106.67 83.1146 105.733C78.517 98.4999 73.9194 91.2668 69.3218 84.0336C63.7285 88.8069 56.9639 95.6008 50.6385 104.796C41.6775 117.798 37.2849 130.273 35.03 138.912C36.7285 143.275 39.3348 148.634 43.3467 154.198C45.7773 157.566 48.2665 160.377 50.5799 162.662C52.2784 164.506 54.1526 166.439 56.1439 168.431C57.5203 159.44 60.5658 146.409 68.0626 132.323C73.5973 121.869 79.9227 113.903 85.1938 108.252Z" fill="black"/>
<path d="M68.5304 106.934C70.8593 106.934 72.7473 105.046 72.7473 102.717C72.7473 100.388 70.8593 98.5 68.5304 98.5C66.2015 98.5 64.3135 100.388 64.3135 102.717C64.3135 105.046 66.2015 106.934 68.5304 106.934Z" fill="#FFE84D"/>
<path d="M62.1466 206.471C53.6542 211.742 48.8809 217.687 48.8809 223.924C48.8809 241.378 85.9839 256.254 137.905 261.876C89.4687 254.878 54.6206 238.859 53.742 221.318C53.5663 217.716 55.8798 212.328 62.1466 206.471Z" fill="white" stroke="white" stroke-width="1.2" stroke-miterlimit="10" stroke-linecap="round" stroke-linejoin="round"/>
<path d="M47.0944 208.667C39.3341 213.528 35.0293 218.917 35.0293 224.539C35.0293 230.982 40.6226 237.044 50.5792 242.432C49.7007 241.846 38.5434 236.399 38.0163 225.535C37.5477 216.164 46.0987 209.663 47.0944 208.667Z" fill="white" stroke="white" stroke-width="1.2" stroke-miterlimit="10" stroke-linecap="round" stroke-linejoin="round"/>
<path d="M256.301 193.498C291.207 202.634 314.605 213.382 313.873 226.852C313.727 229.371 312.321 236.546 309.129 240.118C315.308 235.726 318.705 230.923 318.705 225.886C318.676 212.269 293.814 200.321 256.301 193.498Z" fill="white" stroke="white" stroke-width="1.2" stroke-miterlimit="10" stroke-linecap="round" stroke-linejoin="round"/>
<path d="M315.718 243.222C327.695 236.721 332.586 230.63 332.586 224.568C332.586 222.724 331.21 219.209 330.331 217.452C330.331 217.452 331.21 222.841 328.515 228.317C325.265 234.847 318.325 241.173 315.718 243.222Z" fill="white" stroke="white" stroke-width="1.2" stroke-miterlimit="10" stroke-linecap="round" stroke-linejoin="round"/>
<path d="M253.489 215.344C252.933 215.022 252.288 215.607 252.581 216.193C257.062 225.593 238.378 231.626 221.13 234.027C215.273 234.847 213.633 234.378 212.608 234.232C219.227 232.299 247.72 226.003 247.691 217.335C247.691 215.285 246.637 213.352 244.616 212.123C244.03 211.771 243.298 212.357 243.503 213.001C244.352 215.724 244.47 219.619 236.826 223.778C233.019 225.681 227.075 228.58 219.578 230.601C214.922 231.86 202.447 234.261 198.523 235.052C196.795 235.403 196.795 237.336 198.552 237.248C198.552 237.248 255.129 236.311 256.827 220.293C257.062 218.155 256.095 216.925 253.489 215.344Z" fill="white"/>
<path d="M234.337 208.843C233.517 208.725 232.844 209.516 233.078 210.307C235.333 218.214 218.846 222.753 217.763 221.64C216.796 220.673 219.344 219.034 219.344 219.034C223.737 216.339 226.226 214.817 226.226 212.357C226.226 209.692 224.732 207.261 220.75 206.734C220.076 206.646 219.578 207.291 219.842 207.906C221.013 210.805 221.189 218.009 198.259 223.778C203.853 223.192 208.889 222.313 213.077 221.171C212.023 222.343 211.232 223.69 210.793 224.773C210.617 225.242 210.91 225.769 211.379 225.827C220.896 227.262 239.579 219.092 239.579 214.26C239.579 212.093 237.588 209.282 234.337 208.843Z" fill="white"/>
<path d="M204.877 224.715C205.668 224.129 206.166 223.514 206.371 222.841C206.488 222.518 206.195 222.167 205.844 222.255C200.748 223.456 188.185 224.539 183.383 224.539C158.726 224.539 143 218.067 137.495 214.524C137.26 214.377 136.997 214.377 136.762 214.524C135.269 215.432 134.625 216.837 135.005 218.243C137.612 227.936 182.563 229.635 190.938 228.375C199.577 227.175 204.175 225.213 204.877 224.715Z" fill="black"/>
<path d="M155.007 222.255C160.278 222.665 172.987 224.685 178.61 221.493C160.541 219.18 151.785 216.632 151.727 213.967C151.727 213.587 151.903 213.177 152.312 212.767C157.935 212.737 163.235 212.796 168.829 212.767C173.221 216.896 191.963 215.812 196.122 215.08C196.004 215.49 195.858 215.842 195.331 216.457C194.452 217.54 193.398 217.891 192.959 218.009C191.963 218.155 185.316 218.565 183.676 218.477C185.316 218.916 187.629 219.121 188.186 220.029C188.742 221.464 185.843 224.422 178.434 225.945C175.535 226.647 170.293 224.89 163.909 225.945C163.704 226.062 155.007 222.255 155.007 222.255Z" fill="black"/>
<path d="M212.667 190.218C210.5 191.272 207.747 192.414 204.409 193.293C201.305 194.084 198.494 194.435 196.209 194.552" stroke="#FFE84D" stroke-width="1.2" stroke-miterlimit="10" stroke-linecap="round" stroke-linejoin="round"/>
<path d="M151.902 147.17C151.112 146.965 150.526 146.35 150.614 145.56C150.702 144.769 151.434 144.183 152.225 144.271C197.41 148.43 211.818 140.845 224.879 136.892C237.207 133.143 244.44 130.742 244.44 125.851C244.44 125.031 245.085 124.387 245.905 124.387C246.725 124.387 247.369 125.031 247.369 125.851C247.369 132.206 239.609 140.757 225.757 144.945C212.462 148.986 170.029 151.944 151.902 147.17Z" fill="#FFE84D"/>
<path d="M213.282 152.412C208.743 153.642 203.12 154.696 196.649 154.813C194.13 154.872 191.787 154.755 189.591 154.579" stroke="#FFE84D" stroke-width="1.2" stroke-miterlimit="10" stroke-linecap="round" stroke-linejoin="round"/>
<path d="M183.383 69.2744C183.471 68.3959 185.462 68.3959 187.453 68.2787C194.745 67.9273 196.824 67.4588 196.912 67.9566C197.029 68.4837 194.891 69.5087 193.339 69.9186C190.118 70.8264 183.061 72.2321 183.383 69.2744Z" fill="#FFE84D"/>
<path d="M115.444 107.49C129.236 101.458 137.465 91.6475 141.36 96.0401C148.505 104.035 131.316 120.053 122.208 132.06" stroke="#FFE84D" stroke-width="1.2" stroke-miterlimit="10" stroke-linecap="round" stroke-linejoin="round"/>
<path d="M234.747 146.321C217.997 166.439 205.873 179.412 210.237 184.332C214.19 188.783 234.367 179.031 267.341 134.812L261.777 112.703L243.826 128.868" fill="#FFE84D"/>
<path d="M228.773 177.099C222.155 185.825 223.18 189.984 224.322 191.038C228.363 194.728 251.351 181.169 275.774 139.41L265.261 122.63" fill="#FFE84D"/>
<path d="M228.803 177.069L228.773 177.099C222.155 185.825 223.18 189.984 224.322 191.038C224.82 191.477 225.552 191.682 226.548 191.594C225.494 189.427 227.221 182.136 228.803 177.069Z" fill="white"/>
<path d="M264.676 156.717C256.945 180.466 262.684 189.545 265.408 190.189C269.683 191.214 278.059 164.887 296.303 115.426C298.118 110.507 301.515 106.348 305.966 103.595L332.351 86.9621C330.682 79.4653 308.895 37.7354 302.892 31C292.993 37.2082 279.318 46.0813 269.42 52.2603C266.374 53.8124 262.977 55.3351 259.229 56.7408C255.012 58.3221 245.641 60.0206 235.274 66.8438C223.854 74.3699 202.037 87.2842 203.706 92.526C208.274 106.787 247.222 78.4404 250.619 85.615C259.2 107.227 196.151 153.876 209.885 165.971C211.144 167.084 217.675 162.574 234.777 146.35C240.956 140.464 248.54 133.055 257.765 123.802" fill="#FFE84D"/>
<path d="M268.014 60.7536C283.974 54.2232 296.068 46.2286 304.268 39.9325C302.482 37.6484 304.502 32.8751 302.862 31.0302C292.993 37.2091 279.318 46.0822 269.42 52.2612C266.374 53.8132 262.977 55.336 259.229 56.7417C255.012 58.323 245.641 60.0215 235.274 66.8447C223.854 74.3707 202.037 87.285 203.706 92.5269C220.779 79.8176 235.801 72.7015 246.461 68.5432C255.129 65.1169 259.346 64.297 268.014 60.7536Z" fill="white"/>
<path d="M302.862 31.0293C294.839 36.0369 283.037 43.7386 275.013 48.7462C280.548 57.8536 286.17 67.9274 291.617 78.9382C296.156 88.1042 300.08 96.948 303.507 105.353C306.669 103.186 311.003 100.55 314.81 98.1486C319.232 95.3666 327.988 89.6269 332.322 86.9914C330.653 79.4946 308.866 37.7647 302.862 31.0293Z" fill="black"/>
<path d="M246.344 104.855C235.597 124.827 198.933 156.541 209.856 165.942C210.237 166.264 211.086 166.088 212.521 165.268C207.513 158.679 241.102 118.882 246.344 104.855Z" fill="white"/>
<path d="M234.747 146.321C217.997 166.439 205.873 179.412 210.237 184.332C211.086 185.298 212.696 185.591 214.981 185.035C211.701 180.525 238.32 144.681 243.796 137.594L234.747 146.321Z" fill="white"/>
<path d="M266.345 154.316C265.818 155.604 264.676 156.717 264.676 156.717C256.945 180.466 262.684 189.545 265.408 190.189C266.55 190.452 269.244 186.323 269.244 186.323C269.244 186.323 261.191 183.746 266.345 154.316Z" fill="white"/>
<path d="M279.786 156.717C277.824 154.579 276.477 155.78 275.54 154.462C272.612 150.392 289.831 124.621 291.968 125.822C293.198 126.525 289.655 140.201 289.333 141.196C283.74 158.972 287.517 171.037 283.388 171.037C279.698 171.066 283.242 160.465 279.786 156.717Z" fill="black"/>
<path d="M267.341 134.812C234.396 179.031 214.19 188.783 210.237 184.332C205.873 179.412 217.997 166.439 234.747 146.321" stroke="black" stroke-width="1.2" stroke-miterlimit="10" stroke-linecap="round" stroke-linejoin="round"/>
<path d="M228.773 177.099C222.155 185.825 223.18 189.984 224.322 191.038C228.363 194.728 251.351 181.169 275.774 139.41" stroke="black" stroke-width="1.2" stroke-miterlimit="10" stroke-linecap="round" stroke-linejoin="round"/>
<path d="M264.676 156.717C256.945 180.466 262.685 189.545 265.408 190.189C269.684 191.214 278.059 164.887 296.303 115.426C298.118 110.507 301.515 106.348 305.967 103.595L332.352 86.9621C328.896 78.4989 307.665 37.9696 302.892 31C292.994 37.2082 279.318 46.0813 269.42 52.2603C266.374 53.8124 262.977 55.3351 259.229 56.7408C256.594 57.7365 247.105 60.2549 240.927 63.5347" stroke="black" stroke-width="1.2" stroke-miterlimit="10" stroke-linecap="round" stroke-linejoin="round"/>
<path d="M284.208 181.843C282.744 181.96 281.66 185.65 281.895 188.549C282.07 190.54 282.803 193.029 284.589 193.029C286.082 193.029 287.342 192.912 285.262 186.704C284.472 184.449 285.467 181.755 284.208 181.843Z" fill="black"/>
<path d="M240.282 63.8861C238.642 64.7646 236.973 65.731 235.274 66.8438C223.854 74.3698 202.037 87.2842 203.706 92.526C207.835 105.411 240.018 83.5065 248.687 84.4436C249.155 84.5022 249.536 84.6193 249.858 84.795" stroke="#FFE84D" stroke-width="1.2" stroke-miterlimit="10" stroke-linecap="round" stroke-linejoin="round"/>
<path d="M289.069 53.1388C291.398 53.1388 293.286 51.2508 293.286 48.9219C293.286 46.5929 291.398 44.705 289.069 44.705C286.741 44.705 284.853 46.5929 284.853 48.9219C284.853 51.2508 286.741 53.1388 289.069 53.1388Z" fill="#FFE84D"/>
<path d="M207.513 230.337C207.484 230.103 208.187 229.839 209.065 229.488C211.525 228.522 214.395 228.229 214.541 228.697C214.629 229.049 213.253 229.693 212.96 229.839C210.471 231.011 207.572 230.777 207.513 230.337Z" fill="white"/>
<path d="M97.434 221.903C97.6683 221.288 97.0826 220.644 96.4383 220.82C93.3049 221.669 91.2843 223.573 91.255 225.3C91.2257 227.848 95.6769 229.605 98.2539 230.074C99.601 230.337 100.86 230.308 101.944 230.162C102.5 230.074 102.529 229.312 102.002 229.195C99.4253 228.522 97.5511 226.794 97.1411 224.744C96.9362 223.66 97.1411 222.665 97.434 221.903Z" fill="black"/>
<path d="M250.21 85.0293C260.371 106.495 196.122 153.818 209.856 165.941C211.554 167.435 223.063 158.533 257.736 123.772" stroke="black" stroke-width="1.2" stroke-miterlimit="10" stroke-linecap="round" stroke-linejoin="round"/>
<path d="M249.741 89.3633C249.741 79.9924 245.29 70.68 240.37 63.2418C228.041 44.6464 206.957 32.3763 183.149 32.4349C145.372 32.4935 114.741 63.2711 114.741 101.223C114.741 113.611 117.991 125.207 123.702 135.252" stroke="white" stroke-width="1.2" stroke-miterlimit="10" stroke-linecap="round" stroke-linejoin="round"/>
<path d="M193.369 58.7613C208.597 56.6821 225.435 52.5823 218.553 39.873C220.954 41.4836 222.741 42.655 225.142 44.2656C227.104 56.0671 209.27 61.1626 193.398 59.7277C192.812 59.6691 192.783 58.8198 193.369 58.7613Z" fill="#FFE84D"/>
<path d="M139.984 44.9392C135.738 49.5075 134.361 53.5195 134.478 56.9457C134.859 66.7559 164.846 68.3958 177.175 68.8644C177.526 68.8644 177.555 69.3915 177.233 69.4501C151.024 74.9555 118.226 65.4381 131.286 53.6366C135.738 49.3611 135.562 49.244 139.984 44.9392Z" fill="#FFE84D"/>
<path d="M125.576 59.962C118.226 70.5629 140.394 74.8091 148.184 75.7755C148.476 75.8048 148.447 76.244 148.154 76.244C140.804 76.6247 122.179 75.7755 120.51 68.1323C122.208 65.4089 123.907 62.6855 125.576 59.962Z" fill="#FFE84D"/>
</svg>
